<svg width="41" height="42" viewBox="0 0 41 42" fill="none" xmlns="http://www.w3.org/2000/svg">
<g clip-path="url(#clip0_770_775)">
<path d="M20.6562 39.141C19.6292 39.9938 18.3564 40.3164 16.8376 40.109C15.2312 39.8896 13.8832 39.1239 12.7936 37.8117C11.7041 36.4995 11.1991 35.0338 11.2787 33.4144L11.7986 7.14241C11.8485 5.83021 12.2238 4.69956 12.9247 3.75044C13.6256 2.80133 14.567 2.11847 15.7489 1.70188C16.9308 1.28529 18.245 1.16835 19.6915 1.35106C20.1727 1.43159 20.6591 1.55729 21.1505 1.72814C21.642 1.89899 22.109 2.11838 22.5516 2.3863C22.9941 2.65422 23.4234 2.96849 23.8394 3.32911C24.2554 3.68973 24.6368 4.07898 24.9838 4.49688C26.4244 6.29419 27.101 8.2317 27.0136 10.3094L26.6311 30.1978C26.6319 30.4795 26.5362 30.7073 26.3439 30.8811C26.1516 31.0549 25.9201 31.127 25.6496 31.0975C25.3791 31.068 25.1463 30.9436 24.9513 30.7243C24.7562 30.505 24.6583 30.2545 24.6574 29.9728L25.0399 10.0844C25.1027 8.50717 24.5866 7.04359 23.4916 5.69361C22.3965 4.34363 21.0965 3.5733 19.5916 3.38262C18.6431 3.23827 17.752 3.27219 16.9183 3.48438C16.0845 3.69658 15.3645 4.13918 14.758 4.8122C14.1515 5.48522 13.823 6.33697 13.7723 7.36747L13.2524 33.6395C13.1988 34.7288 13.5329 35.7081 14.2547 36.5774C14.9764 37.4466 15.8776 37.955 16.9583 38.1025C17.4548 38.1703 17.9153 38.148 18.3399 38.0355C18.7644 37.9231 19.1314 37.7101 19.4408 37.3967C20.0875 36.8033 20.4314 35.9388 20.4725 34.8033L20.8611 13.8931C20.8683 13.7459 20.8683 13.5977 20.8609 13.4485C20.8536 13.2992 20.8361 13.1301 20.8087 12.9411C20.7812 12.7521 20.7315 12.5675 20.6595 12.3872C20.5875 12.207 20.5002 12.0394 20.3975 11.8846C20.2949 11.7298 20.1504 11.6026 19.9642 11.5031C19.778 11.4036 19.568 11.3379 19.3344 11.306C18.7656 11.2135 18.3571 11.2985 18.1089 11.561C17.8455 11.8362 17.6894 12.3188 17.6408 13.0087L17.3518 28.7528C17.3432 28.9295 17.2949 29.0896 17.2069 29.2332C17.119 29.3768 16.996 29.486 16.838 29.5608C16.6799 29.6355 16.5133 29.6609 16.3381 29.637C16.0599 29.6138 15.8305 29.4936 15.6501 29.2763C15.4697 29.059 15.379 28.8095 15.3782 28.5278L15.6463 12.7586C15.7196 11.5682 16.0503 10.6722 16.6385 10.0708C17.3187 9.39307 18.243 9.13395 19.4113 9.29349C20.5073 9.42834 21.3678 9.94229 21.9928 10.8353C22.6178 11.7284 22.8985 12.8227 22.8348 14.1181L22.467 35.0534C22.3859 36.7022 21.8443 37.9991 20.8423 38.9441C20.8116 38.9696 20.7806 39.0024 20.7492 39.0426C20.7178 39.0828 20.6868 39.1156 20.6562 39.141Z" fill="#585757"/>
</g>
<defs>
<clipPath id="clip0_770_775">
<rect width="41" height="42" fill="white"/>
</clipPath>
</defs>
</svg>
