<svg width="24" height="23" viewBox="0 0 24 23" fill="none" xmlns="http://www.w3.org/2000/svg">
<path d="M23.8828 13.5971C23.9531 13.036 24 12.4655 24 11.8857C24 6.78918 21.2016 2.3519 17.0578 -6.06905e-07L16.2844 1.62716L16.2844 12.7414L17.1422 13.5971L23.8828 13.5971ZM8.96834e-07 12.7414C8.2203e-07 13.5971 0.857814 14.4527 1.71563 14.4527L8.57344 14.4527C8.14688 16.1641 7.71563 17.8707 7.71563 18.7264C7.71563 20.4377 8.57344 22.1443 9 22.5745C9.00937 22.5839 9.42656 23 10.2844 23C11.5687 23 11.5687 21.7188 11.5687 21.7188C11.5687 21.6955 11.9953 19.582 11.9953 18.7264C11.9953 17.8707 13.7109 14.4527 14.5688 13.5971L15.4266 13.1716L15.4266 1.20167L14.5688 0.776174L5.14219 0.776173C3.42657 0.776173 2.56875 1.63183 2.56875 2.4875C2.56875 3.34316 3.42656 4.19882 4.28438 4.19882C2.56875 4.19882 1.71094 5.05448 1.71094 5.91014C1.71094 6.7658 2.56875 7.62147 3.42656 7.62147C1.71094 7.62147 0.853128 8.47713 0.853128 9.33279C0.853128 10.1885 1.71094 11.0441 2.56875 11.0441C0.857812 11.0301 9.71639e-07 11.8857 8.96834e-07 12.7414Z" fill="#585757"/>
</svg>
