<svg width="19" height="21" viewBox="0 0 19 21" fill="none" xmlns="http://www.w3.org/2000/svg">
<g clip-path="url(#clip0_770_786)">
<path d="M18.3214 1.31251H13.2321L12.8335 0.545515C12.749 0.38154 12.6189 0.243608 12.4579 0.147236C12.2968 0.0508642 12.1111 -0.000124194 11.9217 7.19115e-06H7.07411C6.88512 -0.000695429 6.69974 0.0501029 6.53923 0.146582C6.37871 0.243061 6.24954 0.381319 6.16652 0.545515L5.76786 1.31251H0.678571C0.498603 1.31251 0.326006 1.38165 0.198749 1.50472C0.0714922 1.62779 0 1.79471 0 1.96876L0 3.28126C0 3.45531 0.0714922 3.62223 0.198749 3.7453C0.326006 3.86837 0.498603 3.93751 0.678571 3.93751H18.3214C18.5014 3.93751 18.674 3.86837 18.8013 3.7453C18.9285 3.62223 19 3.45531 19 3.28126V1.96876C19 1.79471 18.9285 1.62779 18.8013 1.50472C18.674 1.38165 18.5014 1.31251 18.3214 1.31251ZM2.25625 19.1543C2.28861 19.6541 2.51672 20.1232 2.89413 20.4661C3.27154 20.809 3.76989 20.9999 4.28772 21H14.7123C15.2301 20.9999 15.7285 20.809 16.1059 20.4661C16.4833 20.1232 16.7114 19.6541 16.7437 19.1543L17.6429 5.25001H1.35714L2.25625 19.1543Z" fill="#585757"/>
</g>
<defs>
<clipPath id="clip0_770_786">
<rect width="19" height="21" fill="white"/>
</clipPath>
</defs>
</svg>
