<svg width="22" height="21" viewBox="0 0 22 21" fill="none" xmlns="http://www.w3.org/2000/svg">
<path d="M0.883627 8.90248C0.823373 9.39164 0.783203 9.88894 0.783203 10.3944C0.783203 14.8376 3.18133 18.7059 6.73232 20.7563L7.39512 19.3378V9.64844L6.66001 8.90248H0.883627ZM21.35 9.64844C21.35 8.90248 20.6149 8.15652 19.8798 8.15652H14.003C14.3686 6.6646 14.7381 5.17676 14.7381 4.4308C14.7381 2.93888 14.003 1.45104 13.6375 1.07602C13.6294 1.06787 13.2719 0.705078 12.5368 0.705078C11.4362 0.705078 11.4362 1.82198 11.4362 1.82198C11.4362 1.84236 11.0706 3.68484 11.0706 4.4308C11.0706 5.17676 9.60043 8.15652 8.86532 8.90248L8.13022 9.27343V19.7087L8.86532 20.0797H16.9434C18.4136 20.0797 19.1487 19.3337 19.1487 18.5877C19.1487 17.8418 18.4136 17.0958 17.6785 17.0958C19.1487 17.0958 19.8838 16.3499 19.8838 15.6039C19.8838 14.8579 19.1487 14.112 18.4136 14.112C19.8838 14.112 20.6189 13.366 20.6189 12.6201C20.6189 11.8741 19.8838 11.1281 19.1487 11.1281C20.6149 11.1404 21.35 10.3944 21.35 9.64844V9.64844Z" fill="#585757"/>
</svg>
