<svg width="36" height="36" viewBox="0 0 36 36" fill="none" xmlns="http://www.w3.org/2000/svg">
<path d="M8.46869 12.1406L27.1491 12.1406" stroke="black" stroke-width="2" stroke-linecap="round"/>
<path d="M8.46869 17.668L19.6769 17.668" stroke="black" stroke-width="2" stroke-linecap="round"/>
<path d="M34.785 16.1828V14.2222C34.785 9.46472 34.785 7.08597 33.82 5.28648C33.0638 3.87659 31.9084 2.72119 30.4986 1.96506C28.6991 1 26.3203 1 21.5628 1H14.2222C9.46472 1 7.08597 1 5.28648 1.96506C3.87659 2.72119 2.72119 3.87659 1.96506 5.28648C1 7.08597 1 9.46472 1 14.2222V16.1828C1 19.0987 1 20.5567 1.36982 21.7404C2.1651 24.2859 4.15855 26.2793 6.70409 27.0746C7.88778 27.4444 9.34575 27.4444 12.2617 27.4444H12.3012C12.8602 27.4444 13.3795 27.7333 13.6744 28.2081L17.6372 34.5889C17.7548 34.7782 18.0303 34.7782 18.1478 34.5889L22.1992 28.0654C22.439 27.6793 22.8613 27.4444 23.3159 27.4444H23.5234C26.4393 27.4444 27.8972 27.4444 29.0809 27.0746C31.6265 26.2793 33.6199 24.2859 34.4152 21.7404C34.785 20.5567 34.785 19.0987 34.785 16.1828Z" stroke="black" stroke-width="2" stroke-linejoin="round"/>
</svg>
