<svg width="53" height="52" viewBox="0 0 53 52" fill="none" xmlns="http://www.w3.org/2000/svg">
<g clip-path="url(#clip0_857_15)">
<path d="M18.8358 40.0984C19.6899 40.5622 20.6726 40.7437 21.6472 40.6177C22.6218 40.4916 23.54 40.0643 24.274 39.3952L16.4956 35.1841C16.3237 36.1576 16.4567 37.154 16.8761 38.0347C17.2955 38.9154 17.9805 39.6367 18.8358 40.0984V40.0984ZM34.2389 34.9165L37.7908 28.476C40.2823 23.9581 39.3657 18.5197 35.9117 15.1634C36.0789 13.9081 35.4935 12.6428 34.3259 12.0107C33.1583 11.3786 31.7674 11.5739 30.7914 12.3914C26.0742 11.3258 20.9605 13.4976 18.4689 18.0155L14.917 24.456L11.2391 25.5779C11.0389 25.6386 10.8517 25.7382 10.6883 25.871C10.5249 26.0039 10.3886 26.1673 10.2871 26.3519L9.51263 27.7563C9.30722 28.1287 9.25563 28.5646 9.36921 28.9681C9.48278 29.3716 9.75223 29.7096 10.1183 29.9078L32.2004 41.8626C32.5664 42.0608 32.9991 42.1029 33.4031 41.9796C33.8072 41.8564 34.1496 41.5779 34.355 41.2054L35.1295 39.8011C35.2315 39.6167 35.2967 39.4148 35.3212 39.2068C35.3458 38.9988 35.3293 38.7889 35.2727 38.5892L34.2389 34.9165Z" fill="black"/>
</g>
<defs>
<clipPath id="clip0_857_15">
<rect width="37.6658" height="38.491" fill="white" transform="matrix(0.879397 0.476088 -0.48292 0.875665 19.3132 0.236328)"/>
</clipPath>
</defs>
</svg>
