<svg width="31" height="31" viewBox="0 0 31 31" fill="none" xmlns="http://www.w3.org/2000/svg">
<path d="M10.1935 28.4385C11.0337 28.8974 12.0003 29.0769 12.9591 28.9523C13.9178 28.8276 14.821 28.4048 15.5431 27.7427L7.89138 23.5764C7.72229 24.5396 7.85313 25.5254 8.2657 26.3968C8.67827 27.2681 9.35209 27.9818 10.1935 28.4385V28.4385ZM25.3457 23.3118L28.8397 16.9398C31.2907 12.4699 30.3889 7.08933 26.9912 3.76882C27.1557 2.52682 26.5798 1.27502 25.4312 0.649635C24.2827 0.0242479 22.9144 0.217471 21.9543 1.02629C17.314 -0.0280448 12.2835 2.12074 9.83255 6.59058L6.33853 12.9626L2.72047 14.0725C2.52352 14.1325 2.33939 14.2311 2.17867 14.3625C2.01796 14.4939 1.88384 14.6556 1.78402 14.8382L1.02214 16.2277C0.820072 16.5962 0.76932 17.0275 0.881048 17.4267C0.992776 17.8259 1.25783 18.1603 1.6179 18.3563L23.3404 30.184C23.7004 30.38 24.126 30.4217 24.5235 30.2997C24.921 30.1778 25.2579 29.9023 25.4599 29.5338L26.2218 28.1443C26.3221 27.962 26.3862 27.7622 26.4104 27.5564C26.4346 27.3506 26.4184 27.143 26.3627 26.9454L25.3457 23.3118Z" fill="black"/>
</svg>
